<svg xmlns="http://www.w3.org/2000/svg" viewBox="0 0 180 180" fill="none">
  <defs>
    <linearGradient id="shield" x1="34" y1="24" x2="146" y2="156" gradientUnits="userSpaceOnUse">
      <stop stop-color="#22d3ee"/>
      <stop offset="1" stop-color="#34d399"/>
    </linearGradient>
    <filter id="glow" x="-20%" y="-20%" width="140%" height="140%">
      <feGaussianBlur stdDeviation="2" result="b"/>
      <feMerge>
        <feMergeNode in="b"/>
        <feMergeNode in="SourceGraphic"/>
      </feMerge>
    </filter>
  </defs>
  <rect width="180" height="180" rx="40" fill="#07090b"/>
  <rect x="8" y="8" width="164" height="164" rx="34" stroke="#22d3ee" stroke-opacity="0.18" stroke-width="2"/>
  <path
    d="M90 30 138 52.5V88.5c0 27.6-23.6 49.5-48 60.4C65.6 138 42 116.1 42 88.5V52.5L90 30Z"
    fill="url(#shield)"
    filter="url(#glow)"
  />
  <path
    d="M90 30 138 52.5V88.5c0 27.6-23.6 49.5-48 60.4C65.6 138 42 116.1 42 88.5V52.5L90 30Z"
    stroke="#07090b"
    stroke-width="2.5"
    stroke-opacity="0.35"
  />
  <path fill="#07090b" d="M63 68h9.5v43H63V68zm0 0h17.5v8.5H63V68zm0 17.25h17.5v8.5H63v-8.5zm0 17.25h17.5v8.5H63v-8.5z"/>
  <path fill="#07090b" d="M102 68c13.5 0 16.5 7.5 16.5 13.25 0 6.5-4.75 11-10.75 12.25 7.5.75 12.25 5.75 12.25 13.75 0 8.75-7.5 13.75-17 13.75H94.5V68h13zm-.75 8.25H97.5v13.25h3.75c5.25 0 7.5-2.5 7.5-6.5 0-4-2.25-6.75-7.5-6.75zm-4.5 20.75h7.5c5.5 0 8-2.75 8-7 0-4.25-2.75-7-8.25-7H96.75v14z"/>
  <path d="M28 28h14v14H28V28zm118 118h14v14h-14v-14z" fill="#22d3ee" fill-opacity="0.55"/>
</svg>
